<?xml version="1.0" encoding="UTF-8"?>
<svg version="1.1" xmlns="http://www.w3.org/2000/svg" width="1024" height="1024">
  <path d="M0 0 C337.92 0 675.84 0 1024 0 C1024 337.92 1024 675.84 1024 1024 C686.08 1024 348.16 1024 0 1024 C0 686.08 0 348.16 0 0 Z " fill="#121212" transform="translate(0,0)"/>
  <path d="M0 0 C9.57 0 19.14 0 29 0 C31.41039236 9.22384748 33.81900036 18.44815614 36.22462845 27.67324734 C37.34220181 31.95863404 38.46050007 36.2438286 39.58056641 40.52856445 C40.66519199 44.67784071 41.74776801 48.82764713 42.8290329 52.97780037 C43.23809347 54.54648222 43.64784346 56.11498448 44.05835724 57.68328667 C46.40592862 66.6539154 48.66757947 75.63409466 50.7214241 84.6771841 C51.56385445 88.43916136 51.56385445 88.43916136 53 92 C53.22437744 91.21206055 53.44875488 90.42412109 53.67993164 89.61230469 C56.48961973 79.75075436 59.30846623 69.89183899 62.13134766 60.03405762 C62.735408 57.9241757 63.33923175 55.81422604 63.94287109 53.70422363 C65.97221545 46.61080659 68.00526944 39.51846869 70.04269409 32.42736816 C70.72396472 30.05424591 71.40407489 27.68079022 72.08303833 25.30700684 C73.04315697 21.95117167 74.00740696 18.59654995 74.97265625 15.2421875 C75.40952759 13.71019211 75.40952759 13.71019211 75.85522461 12.14724731 C76.12351074 11.21806488 76.39179687 10.28888245 76.66821289 9.33154297 C77.01934898 8.10756302 77.01934898 8.10756302 77.37757874 6.8588562 C78 5 78 5 79 4 C80.92667507 3.91251793 82.85651861 3.89302666 84.78515625 3.90234375 C85.95498047 3.90556641 87.12480469 3.90878906 88.33007812 3.91210938 C89.56177734 3.92048828 90.79347656 3.92886719 92.0625 3.9375 C93.91584961 3.94426758 93.91584961 3.94426758 95.80664062 3.95117188 C98.87114117 3.96300392 101.93554721 3.97948827 105 4 C110.11345308 19.88193773 114.81482741 35.87439316 119.46826172 51.89624023 C123.38248075 65.36040135 127.43082383 78.74236942 132 92 C132.16786514 91.29595535 132.33573029 90.59191071 132.50868225 89.86653137 C137.14182962 70.46983437 141.96735021 51.12737383 146.89764404 31.80432129 C147.8178642 28.19605948 148.73599073 24.58726493 149.65429688 20.97851562 C151.43403466 13.98512268 153.21707311 6.99258361 155 0 C164.24 0 173.48 0 183 0 C181.74474471 6.90390412 180.45817937 13.53013501 178.62890625 20.26171875 C178.39454865 21.13911713 178.16019104 22.0165155 177.91873169 22.92050171 C177.40664847 24.835865 176.89260225 26.75070432 176.37680054 28.66506958 C175.24618294 32.8615706 174.12521641 37.06063239 173.00367737 41.25956726 C172.38161183 43.5883957 171.75906875 45.91709661 171.13609314 48.24568176 C166.83014602 64.35093151 162.58810724 80.47310642 158.33851242 96.59329605 C157.07021079 101.40379626 155.80110488 106.21408431 154.53208828 111.02439594 C152.68762685 118.01615013 150.84387049 125.00808982 149 132 C138.77 132 128.54 132 118 132 C117.03320312 128.90625 116.06640625 125.8125 115.0703125 122.625 C114.73895294 121.56468567 114.40759338 120.50437134 114.06619263 119.41192627 C112.39921179 114.07774694 110.73241515 108.74351014 109.06591797 103.40917969 C105.98493259 93.54773274 102.90306954 83.68657299 99.8125 73.828125 C99.12881708 71.64585489 98.44521941 69.46355809 97.76165771 67.28125 C97.33942321 65.93411508 96.9167794 64.58710839 96.49371338 63.24023438 C95.91407392 61.39484688 95.335902 59.54899862 94.7578125 57.703125 C94.4395752 56.68895508 94.12133789 55.67478516 93.79345703 54.62988281 C93.12958055 52.42948974 92.53066754 50.23557814 92 48 C84.74248615 70.61763519 77.76087896 93.3007556 71.1027832 116.10253906 C70.83522217 117.01696777 70.56766113 117.93139648 70.29199219 118.87353516 C69.78907343 120.59369533 69.28792346 122.31437395 68.78881836 124.03564453 C67.11117072 129.77765855 67.11117072 129.77765855 66 132 C55.77 132 45.54 132 35 132 C26.60479677 101.03226359 18.34631116 70.03075238 10.1875 39 C9.96236221 38.14385605 9.73722443 37.2877121 9.50526428 36.40562439 C7.99611955 30.66648051 6.4878916 24.92709638 4.98046875 19.1875 C4.68487721 18.06224285 4.68487721 18.06224285 4.38331413 16.91425323 C3.83102849 14.81139825 3.27909187 12.70845202 2.72729492 10.60546875 C2.41644455 9.42106201 2.10559418 8.23665527 1.7853241 7.01635742 C1.1772764 4.6809023 0.58531402 2.3412561 0 0 Z " fill="#FCFCFC" transform="translate(560,439)"/>
  <path d="M0 0 C8.58 0 17.16 0 26 0 C26 43.89 26 87.78 26 133 C18.08 133 10.16 133 2 133 C1.67 129.7 1.34 126.4 1 123 C0.40574219 123.45890625 -0.18851562 123.9178125 -0.80078125 124.390625 C-13.12876135 133.51678134 -24.86336108 135.79787504 -40 134 C-44.41143618 132.88767435 -48.07627464 131.27926728 -52 129 C-52.80566406 128.56558594 -53.61132812 128.13117188 -54.44140625 127.68359375 C-64.82253741 121.51815037 -70.74634105 111.65917425 -74.078125 100.3359375 C-77.67881489 85.42374442 -74.95459021 71.00512706 -67.75 57.75 C-60.91336857 46.59856494 -51.69224725 39.25523589 -39 36 C-35.88187809 35.56949461 -32.83273989 35.4747708 -29.6875 35.5 C-28.4485498 35.50749268 -28.4485498 35.50749268 -27.18457031 35.51513672 C-15.95040225 35.83316764 -9.51136172 39.7045471 -1 47 C-0.67 31.49 -0.34 15.98 0 0 Z " fill="#13D05A" transform="translate(426,438)"/>
  <path d="M0 0 C0.97066406 0.71542969 0.97066406 0.71542969 1.9609375 1.4453125 C9.05701258 7.57811947 15.41753943 19.84095709 16.17700195 29.17553711 C16.57629556 44.49982118 16.12103591 57.58517791 6 70 C5.44828125 70.68707031 4.8965625 71.37414062 4.328125 72.08203125 C-4.79677808 82.27930542 -18.4800013 86.9582707 -31.80078125 88.27734375 C-46.27462954 88.80099962 -60.16217593 83.68798564 -70.875 73.9375 C-81.49573119 62.49527579 -84.72209501 48.47580122 -84.30859375 33.29296875 C-83.73833279 22.64257623 -79.7465569 14.11542352 -73 6 C-72.17435547 4.95392578 -72.17435547 4.95392578 -71.33203125 3.88671875 C-53.11913958 -16.81888657 -20.71527237 -15.32272527 0 0 Z " fill="#12D15A" transform="translate(325,485)"/>
  <path d="M0 0 C1.14686279 0.00829834 2.29372559 0.01659668 3.4753418 0.02514648 C21.93654556 0.39178711 37.43066419 6.56877767 50.640625 19.59375 C56.05432295 25.35569752 60.01061992 30.84129574 62.3125 38.4375 C58.56864186 39.80908751 54.81658803 41.15669132 51.0625 42.5 C49.99902344 42.88994141 48.93554688 43.27988281 47.83984375 43.68164062 C46.81503906 44.04580078 45.79023438 44.40996094 44.734375 44.78515625 C43.32043457 45.29574585 43.32043457 45.29574585 41.87792969 45.81665039 C39.16159597 46.4740197 37.85997304 46.54547629 35.3125 45.4375 C33.92808 43.47251678 32.60046166 41.46701535 31.3125 39.4375 C25.18510361 32.43476127 17.4672259 27.1251589 8.0390625 26.21899414 C-5.56512843 25.56253188 -15.87044123 26.49333909 -26.65234375 35.46875 C-34.59197358 43.14931321 -38.67222079 53.34978758 -39.16015625 64.32568359 C-39.3100131 75.55691907 -36.78664297 85.44876039 -30.0546875 94.53515625 C-28.6875 96.4375 -28.6875 96.4375 -27.7578125 98.55859375 C-26.37927838 100.97857518 -25.24041287 101.36935416 -22.6875 102.4375 C-21.73875 102.92347656 -20.79 103.40945313 -19.8125 103.91015625 C-18.78125 104.43480469 -17.75 104.95945312 -16.6875 105.5 C-15.65625 106.02722656 -14.625 106.55445313 -13.5625 107.09765625 C-4.61290507 111.26845932 6.48026078 110.40684884 15.7265625 107.46484375 C25.03703418 103.76597056 31.01608904 98.13311339 37.3125 90.4375 C43.21751503 92.11104113 49.06516458 93.95935028 54.875 95.9375 C56.07253906 96.3396875 57.27007812 96.741875 58.50390625 97.15625 C59.43074219 97.5790625 60.35757813 98.001875 61.3125 98.4375 C62.3125 101.4375 62.3125 101.4375 61.1953125 103.8203125 C50.84650042 119.96445934 36.43507661 130.68864194 17.53198242 134.84838867 C-2.30407494 138.76888781 -20.40487713 135.90678116 -37.6875 125.4375 C-52.58180742 115.35281269 -62.61602339 99.91668912 -66.21875 82.2890625 C-68.64053914 62.39002837 -66.40360393 43.25931183 -54.41943359 26.68359375 C-46.034503 16.13933321 -35.34635139 8.10823656 -22.6875 3.4375 C-21.98794189 3.17783447 -21.28838379 2.91816895 -20.56762695 2.65063477 C-13.67438204 0.31451746 -7.24333893 -0.06754564 0 0 Z " fill="#12D15A" transform="translate(169.6875,436.5625)"/>
  <path d="M0 0 C0.9175708 0.00829834 1.8351416 0.01659668 2.78051758 0.02514648 C15.3642608 0.33765482 25.2333166 4.40321667 34.40234375 13.12890625 C46.18980974 26.05612722 46.625 39.00649237 46.625 56.4375 C23.855 56.4375 1.085 56.4375 -22.375 56.4375 C-17.232854 69.69038522 -17.232854 69.69038522 -6.375 76.4375 C1.21944876 77.27313514 9.01679138 77.60354456 15.625 73.4375 C16.49125 72.57125 17.3575 71.705 18.25 70.8125 C20.92928174 68.13321826 21.94236771 67.80266629 25.625 67.4375 C27.93676758 67.96655273 27.93676758 67.96655273 30.26953125 68.87109375 C31.11064453 69.19013672 31.95175781 69.50917969 32.81835938 69.83789062 C33.68267578 70.18013672 34.54699219 70.52238281 35.4375 70.875 C36.32115234 71.21337891 37.20480469 71.55175781 38.11523438 71.90039062 C40.28975848 72.73493771 42.45910489 73.58086133 44.625 74.4375 C38.90055829 84.54989186 31.86031937 92.40568683 20.625 96.4375 C5.09772866 100.57219054 -9.60092595 101.21719223 -24.1875 93.625 C-36.09929728 86.61806042 -42.49507891 77.498292 -46.6484375 64.26171875 C-50.40463588 49.66101213 -48.80440205 35.14673799 -41.1640625 22.10546875 C-31.1988239 7.24464351 -17.87145703 -0.21005785 0 0 Z " fill="#13D15A" transform="translate(512.375,473.5625)"/>
  <path d="M0 0 C8.58 0 17.16 0 26 0 C26.33 23.1 26.66 46.2 27 70 C41.63729182 55.58758288 41.63729182 55.58758288 54.69360352 39.37109375 C57 37 57 37 60.29980469 36.43237305 C61.57758789 36.45855713 62.85537109 36.48474121 64.171875 36.51171875 C64.8542926 36.51879349 65.53671021 36.52586823 66.23980713 36.53315735 C68.41100561 36.56105979 70.57958668 36.62377747 72.75 36.6875 C74.22522306 36.71258883 75.70048671 36.735401 77.17578125 36.75585938 C80.78469904 36.81086863 84.39209391 36.89710693 88 37 C85.75222845 40.42189414 83.6748403 43.56590197 80.6875 46.375 C78.24488904 48.72357232 75.96735876 51.13606223 73.765625 53.7109375 C71.26089723 56.59811473 68.6950716 59.3957668 66.03515625 62.140625 C65.38095703 62.81867188 64.72675781 63.49671875 64.05273438 64.1953125 C62.70485283 65.58684477 61.3504662 66.97210025 59.99023438 68.3515625 C59.34505859 69.02445312 58.69988281 69.69734375 58.03515625 70.390625 C57.4512915 70.98907227 56.86742676 71.58751953 56.26586914 72.20410156 C54.61591398 74.17870629 54.61591398 74.17870629 55 78 C56.67718077 80.50684998 58.38256227 82.83010657 60.25 85.1875 C61.36279283 86.6298806 62.47340638 88.07394467 63.58203125 89.51953125 C64.15260254 90.26154785 64.72317383 91.00356445 65.31103516 91.76806641 C67.94053374 95.24289671 70.44226434 98.80310167 72.9375 102.375 C77.85432975 109.39834021 82.85217909 116.35886274 87.90014648 123.28857422 C88.42165283 124.00674316 88.94315918 124.72491211 89.48046875 125.46484375 C89.94348389 126.100271 90.40649902 126.73569824 90.88354492 127.39038086 C92 129 92 129 93 131 C67.60479695 133.34361789 67.60479695 133.34361789 60.70898438 129.83398438 C57.15093939 126.66990977 55.19817774 122.61784922 53.19873047 118.35888672 C50.91866392 113.8721244 47.8882484 109.85991166 45 105.75 C43.45027881 103.45078466 41.90290687 101.15005415 40.359375 98.84667969 C39.03437242 97.04669414 37.62226306 95.53280003 36 94 C31.41242462 97.4602531 27.58615546 100.63998001 26.16357422 106.36767578 C25.89367393 110.12458695 25.85468025 113.79709028 25.9375 117.5625 C25.93041016 118.85736328 25.92332031 120.15222656 25.91601562 121.48632812 C25.90431332 124.65765406 25.94668965 127.82910058 26 131 C17.42 131 8.84 131 0 131 C0 87.77 0 44.54 0 0 Z " fill="#FCFCFC" transform="translate(792,439)"/>
  <path d="M0 0 C8.25 0 16.5 0 25 0 C25 31.02 25 62.04 25 94 C16.75 94 8.5 94 0 94 C0 62.98 0 31.96 0 0 Z " fill="#FEFEFE" transform="translate(892,476)"/>
  <path d="M0 0 C8.25 0 16.5 0 25 0 C25 31.02 25 62.04 25 94 C16.75 94 8.5 94 0 94 C0 62.98 0 31.96 0 0 Z " fill="#FEFEFE" transform="translate(750,476)"/>
  <path d="M0 0 C6.07282928 4.15622713 10.2741877 8.73229355 12 16 C13.10518173 24.98881139 12.47742138 32.59092761 7 40 C2.06364879 45.45270594 -3.33622823 49.48395333 -10.82421875 50.3125 C-18.67414416 50.62767894 -24.04433438 49.53298361 -29.9375 44.26953125 C-35.98449046 37.95798496 -38.08315014 31.71085119 -38.4375 23.0625 C-38.19413065 14.37863918 -35.21400713 7.06949534 -29 1 C-19.64397715 -5.55343042 -9.75744304 -5.84754565 0 0 Z " fill="#131312" transform="translate(415,500)"/>
  <path d="M0 0 C6.34732399 3.69181089 11.29040741 9.30872222 13.625 16.3125 C14.79301812 34.42635471 14.79301812 34.42635471 9.625 42.3125 C9.026875 43.240625 8.42875 44.16875 7.8125 45.125 C2.56875826 50.36874174 -3.31567644 52.42660407 -10.625 52.625 C-17.19951468 52.52883024 -21.48945103 50.98903537 -26.31640625 46.51171875 C-33.59016618 38.69128793 -34.95659147 32.57225711 -34.7265625 21.98046875 C-34.00582466 14.46077064 -30.83858196 8.53853492 -25.375 3.3125 C-17.54273941 -2.05089584 -8.90072693 -4.08228829 0 0 Z " fill="#131312" transform="translate(301.375,497.6875)"/>
  <path d="M0 0 C4.32731113 4.12124869 7.22725713 8.02515546 8.1875 14 C7.22221409 20.00622341 5.36353149 24.11627085 0.5625 27.9375 C-3.97984175 30.35363923 -7.24286259 31.0048004 -12.375 30.5 C-16.8467077 28.44875794 -20.90447882 25.85974326 -23.375 21.5 C-24.97207749 16.70876752 -25.41084479 11.98860637 -23.43359375 7.23828125 C-18.12465167 -1.7652851 -9.74578504 -4.33146002 0 0 Z " fill="#FBFBFB" transform="translate(912.375,435.5)"/>
  <path d="M0 0 C4.67113357 4.32934331 6.80111982 7.45376026 7.0625 13.875 C6.86898693 18.79290102 5.93255911 21.64061017 2.5625 25.375 C-1.13855076 28.71497264 -3.67258496 30.20529663 -8.6875 30.6875 C-14.4688612 30.2057199 -17.90512031 28.02835704 -21.8125 23.8125 C-24.85986342 19.24145487 -25.20505452 14.71338482 -24.4375 9.375 C-22.7671144 5.36191591 -20.46416646 2.34127431 -17.3125 -0.625 C-11.4549741 -2.66240031 -5.61018206 -2.65208606 0 0 Z " fill="#FBFBFB" transform="translate(770.4375,435.625)"/>
  <path d="M0 0 C3.73186618 3.35123238 6.67561438 7.0997732 8 12 C8 13.32 8 14.64 8 16 C-5.86 16 -19.72 16 -34 16 C-32.64318514 7.85911082 -29.66533359 3.79904018 -23 -1 C-15.72328708 -4.39579936 -6.93390277 -4.16034166 0 0 Z " fill="#131613" transform="translate(525,497)"/>
  <path d="M0 0 C4.47915328 -0.02886338 8.95828291 -0.04675187 13.4375 -0.0625 C14.71689453 -0.07087891 15.99628906 -0.07925781 17.31445312 -0.08789062 C19.13686523 -0.09272461 19.13686523 -0.09272461 20.99609375 -0.09765625 C22.12200928 -0.10289307 23.2479248 -0.10812988 24.40795898 -0.11352539 C27 0 27 0 28 1 C28.10059769 3.94709415 28.1361505 6.87079141 28.12939453 9.81835938 C28.13114685 10.74348831 28.13289917 11.66861725 28.13470459 12.6217804 C28.13912467 15.69578905 28.13618457 18.7697407 28.1328125 21.84375 C28.13348549 23.96984875 28.13445548 26.09594742 28.13571167 28.2220459 C28.13718886 32.6843336 28.13503342 37.14660133 28.13037109 41.60888672 C28.1246738 47.34270569 28.12795269 53.07647785 28.13394356 58.8102951 C28.13754861 63.20245723 28.13641084 67.59460817 28.13381577 71.98677063 C28.13314634 74.10158799 28.13397545 76.21640634 28.13629532 78.33122253 C28.13882093 81.28138946 28.13498254 84.23147946 28.12939453 87.18164062 C28.13141876 88.06479446 28.13344299 88.9479483 28.13552856 89.85786438 C28.11426234 95.88573766 28.11426234 95.88573766 27 97 C25.08541718 97.09971786 23.16717683 97.13080589 21.25 97.1328125 C20.0846875 97.13410156 18.919375 97.13539063 17.71875 97.13671875 C16.4915625 97.13285156 15.264375 97.12898437 14 97.125 C12.15921875 97.13080078 12.15921875 97.13080078 10.28125 97.13671875 C9.1159375 97.13542969 7.950625 97.13414062 6.75 97.1328125 C5.67234375 97.13168457 4.5946875 97.13055664 3.484375 97.12939453 C1 97 1 97 0 96 C-0.0952822 93.01701786 -0.12552175 90.05723655 -0.11352539 87.07397461 C-0.11367142 86.13748581 -0.11381744 85.20099701 -0.1139679 84.23612976 C-0.11326837 81.12484461 -0.10547415 78.01361851 -0.09765625 74.90234375 C-0.09579221 72.75142957 -0.09436824 70.60051497 -0.09336853 68.44960022 C-0.08954225 62.77618242 -0.07971102 57.10279005 -0.06866455 51.42938232 C-0.0584528 45.64498234 -0.05387142 39.86057827 -0.04882812 34.07617188 C-0.03808885 22.71743672 -0.02101111 11.35872047 0 0 Z M1 1 C1 32.02 1 63.04 1 95 C9.25 95 17.5 95 26 95 C26 63.98 26 32.96 26 1 C17.75 1 9.5 1 1 1 Z " fill="#020202" transform="translate(749,475)"/>
  <path d="M0 0 C4.47915328 -0.02886338 8.95828291 -0.04675187 13.4375 -0.0625 C14.71689453 -0.07087891 15.99628906 -0.07925781 17.31445312 -0.08789062 C19.13686523 -0.09272461 19.13686523 -0.09272461 20.99609375 -0.09765625 C22.12200928 -0.10289307 23.2479248 -0.10812988 24.40795898 -0.11352539 C27 0 27 0 28 1 C28.10059769 3.94709415 28.1361505 6.87079141 28.12939453 9.81835938 C28.13114685 10.74348831 28.13289917 11.66861725 28.13470459 12.6217804 C28.13912467 15.69578905 28.13618457 18.7697407 28.1328125 21.84375 C28.13348549 23.96984875 28.13445548 26.09594742 28.13571167 28.2220459 C28.13718886 32.6843336 28.13503342 37.14660133 28.13037109 41.60888672 C28.1246738 47.34270569 28.12795269 53.07647785 28.13394356 58.8102951 C28.13754861 63.20245723 28.13641084 67.59460817 28.13381577 71.98677063 C28.13314634 74.10158799 28.13397545 76.21640634 28.13629532 78.33122253 C28.13882093 81.28138946 28.13498254 84.23147946 28.12939453 87.18164062 C28.13141876 88.06479446 28.13344299 88.9479483 28.13552856 89.85786438 C28.11426234 95.88573766 28.11426234 95.88573766 27 97 C25.08541718 97.09971786 23.16717683 97.13080589 21.25 97.1328125 C20.0846875 97.13410156 18.919375 97.13539063 17.71875 97.13671875 C16.4915625 97.13285156 15.264375 97.12898437 14 97.125 C12.15921875 97.13080078 12.15921875 97.13080078 10.28125 97.13671875 C9.1159375 97.13542969 7.950625 97.13414062 6.75 97.1328125 C5.67234375 97.13168457 4.5946875 97.13055664 3.484375 97.12939453 C1 97 1 97 0 96 C-0.0952822 93.01701786 -0.12552175 90.05723655 -0.11352539 87.07397461 C-0.11367142 86.13748581 -0.11381744 85.20099701 -0.1139679 84.23612976 C-0.11326837 81.12484461 -0.10547415 78.01361851 -0.09765625 74.90234375 C-0.09579221 72.75142957 -0.09436824 70.60051497 -0.09336853 68.44960022 C-0.08954225 62.77618242 -0.07971102 57.10279005 -0.06866455 51.42938232 C-0.0584528 45.64498234 -0.05387142 39.86057827 -0.04882812 34.07617188 C-0.03808885 22.71743672 -0.02101111 11.35872047 0 0 Z M1 1 C1 32.02 1 63.04 1 95 C9.25 95 17.5 95 26 95 C26 63.98 26 32.96 26 1 C17.75 1 9.5 1 1 1 Z " fill="#030303" transform="translate(891,475)"/>
  <path d="M0 0 C0.33 0 0.66 0 1 0 C1.90917249 6.18381608 2.15237375 12.19172183 2.125 18.4375 C2.13080078 19.80165039 2.13080078 19.80165039 2.13671875 21.19335938 C2.13542969 22.05638672 2.13414062 22.91941406 2.1328125 23.80859375 C2.13168457 24.59032959 2.13055664 25.37206543 2.12939453 26.17749023 C2 28 2 28 1 29 C-0.92667507 29.08748207 -2.85651861 29.10697334 -4.78515625 29.09765625 C-5.95498047 29.09443359 -7.12480469 29.09121094 -8.33007812 29.08789062 C-10.17762695 29.07532227 -10.17762695 29.07532227 -12.0625 29.0625 C-13.91584961 29.05573242 -13.91584961 29.05573242 -15.80664062 29.04882812 C-18.87114117 29.03699608 -21.93554721 29.02051173 -25 29 C-25 28.34 -25 27.68 -25 27 C-16.75 27 -8.5 27 0 27 C0 18.09 0 9.18 0 0 Z " fill="#0A0A0A" transform="translate(775,543)"/>
  <path d="M0 0 C-1 3 -1 3 -3.046875 4.38671875 C-10.54333204 7.99411787 -16.74331458 8.59070086 -25 8 C-25 7.67 -25 7.34 -25 7 C-23.515 6.87044922 -23.515 6.87044922 -22 6.73828125 C-14.60086354 5.98722348 -6.05413454 0 0 0 Z " fill="#11E862" transform="translate(310,543)"/>
  <path d="M0 0 C0.66 0.33 1.32 0.66 2 1 C1.34 4.3 0.68 7.6 0 11 C-0.99 11 -1.98 11 -3 11 C-2.69217504 9.35328588 -2.37860766 7.70764424 -2.0625 6.0625 C-1.88847656 5.14597656 -1.71445312 4.22945312 -1.53515625 3.28515625 C-1 1 -1 1 0 0 Z " fill="#1A1A1B" transform="translate(717,539)"/>
  <path d="M0 0 C2.12969485 3.19454228 2.2390304 3.49146925 1.6875 7 C1.58824219 7.680625 1.48898437 8.36125 1.38671875 9.0625 C1 11 1 11 0 14 C-0.99 14 -1.98 14 -3 14 C-2.01 9.38 -1.02 4.76 0 0 Z " fill="#201F20" transform="translate(731,483)"/>
  <path d="M0 0 C0.66 0.33 1.32 0.66 2 1 C2.625 4.0625 2.625 4.0625 3 7 C1.35 7.66 -0.3 8.32 -2 9 C-1.34 6.03 -0.68 3.06 0 0 Z " fill="#1D1C1C" transform="translate(651,486)"/>
  <path d="M0 0 C1.89025742 3.2764462 2.68569741 6.2283689 3 10 C2.015625 12.1875 2.015625 12.1875 1 14 C0.63794536 12.04310963 0.28558579 10.08442332 -0.0625 8.125 C-0.25972656 7.03445313 -0.45695313 5.94390625 -0.66015625 4.8203125 C-1 2 -1 2 0 0 Z " fill="#1C1C1C" transform="translate(569,473)"/>
  <path d="M0 0 C0.66 0.66 1.32 1.32 2 2 C1.01 2.495 1.01 2.495 0 3 C0 2.01 0 1.02 0 0 Z M-2 1 C-1.34 1.66 -0.68 2.32 0 3 C-0.375 6.125 -0.375 6.125 -1 9 C-1.99 9 -2.98 9 -4 9 C-3.34 6.36 -2.68 3.72 -2 1 Z " fill="#181718" transform="translate(634,548)"/>
  <path d="M0 0 C2 1.125 2 1.125 4 3 C4.375 6.0625 4.375 6.0625 4 9 C3.34 9.66 2.68 10.32 2 11 C0.80712589 7.12315913 0 4.08378077 0 0 Z " fill="#080808" transform="translate(689,522)"/>
  <path d="M0 0 C0.99 0.33 1.98 0.66 3 1 C2.34 1 1.68 1 1 1 C1 3.64 1 6.28 1 9 C0.01 9 -0.98 9 -2 9 C-1.34 6.03 -0.68 3.06 0 0 Z " fill="#1B1A1A" transform="translate(712,556)"/>
  <path d="M0 0 C1.64826111 2.96687001 2.44271087 5.65626525 3 9 C2.34 9 1.68 9 1 9 C1 8.01 1 7.02 1 6 C0.34 6 -0.32 6 -1 6 C-0.67 4.02 -0.34 2.04 0 0 Z " fill="#1F1E1F" transform="translate(675,561)"/>
</svg>
